<svg xmlns="http://www.w3.org/2000/svg" xmlns:xlink="http://www.w3.org/1999/xlink" width="118" height="130" viewBox="0 0 118 130"><defs><linearGradient id="a" x1="38.11" y1="32.97" x2="49" y2="32.97" gradientUnits="userSpaceOnUse"><stop offset="0" stop-color="#7a1414"/><stop offset="0.13" stop-color="#7a1414" stop-opacity="0.74"/><stop offset="0.29" stop-color="#7a1414" stop-opacity="0.47"/><stop offset="0.45" stop-color="#7a1414" stop-opacity="0.27"/><stop offset="0.62" stop-color="#7a1414" stop-opacity="0.12"/><stop offset="0.8" stop-color="#7a1414" stop-opacity="0.03"/><stop offset="1" stop-color="#7a1414" stop-opacity="0"/></linearGradient></defs><rect x="36.76" y="12.88" width="24.48" height="58.25" style="fill:#b71d1d"/><polygon points="117.33 53.14 38.11 53.14 38.11 0 0.67 0 0.67 53.14 0.67 58.25 0.67 104.91 0.67 108.36 0.67 130 81.39 130 81.39 108.36 117.33 108.36 117.33 53.14" style="fill:#f42727"/><polygon points="117.33 80.86 81.39 53.07 117.33 53.07 117.33 80.86" style="fill:#7a1414"/><rect x="38.11" y="12.88" width="10.89" height="40.19" style="fill:url(#a)"/><path d="M45.9,63.2A7.93,7.93,0,0,0,38,71.13H53.83A7.93,7.93,0,0,0,45.9,63.2Z" style="fill:#fff"/></svg>