<svg xmlns="http://www.w3.org/2000/svg" xmlns:xlink="http://www.w3.org/1999/xlink" viewBox="0 0 424 573"><defs><linearGradient id="a" x1="5.593" y1="261.5085" x2="346.407" y2="261.5085" gradientTransform="matrix(1, 0, 0, -1, 0, 518)" gradientUnits="userSpaceOnUse"><stop offset="0" stop-color="#fff"/><stop offset="1" stop-color="#ddd7e8"/></linearGradient><linearGradient id="b" x1="194.7252" y1="12.4016" x2="194.7252" y2="93.3525" gradientTransform="matrix(1, 0, 0, -1, 0, 518)" gradientUnits="userSpaceOnUse"><stop offset="0" stop-color="#f9e589"/><stop offset="1" stop-color="#f9e589" stop-opacity="0.5"/></linearGradient><linearGradient id="c" x1="224.0672" y1="12.2938" x2="224.0672" y2="126.84" gradientTransform="matrix(1, 0, 0, -1, 0, 518)" gradientUnits="userSpaceOnUse"><stop offset="0" stop-color="#e6ad10"/><stop offset="1" stop-color="#e6ad10" stop-opacity="0.5"/></linearGradient><linearGradient id="d" x1="254.6101" y1="12.1799" x2="254.6101" y2="163.4288" gradientTransform="matrix(1, 0, 0, -1, 0, 518)" gradientUnits="userSpaceOnUse"><stop offset="0" stop-color="#c87e0e"/><stop offset="1" stop-color="#c87e0e" stop-opacity="0.5"/></linearGradient></defs><g style="opacity:0.3499999940395355"><polygon points="52.559 495.498 66.832 507.736 104.527 507.736 101.224 494.901 120.966 484.259 119.634 471.815 119.634 471.815 106.364 461.123 85.472 440.117 85.721 438.692 135.883 365.85 132.524 350.298 174.671 338.63 231.778 284.066 240.298 312.216 253.537 332.68 258.401 335.43 265.018 336.156 287.753 329.843 293.996 323.744 292.072 315.565 281.209 307.884 273.781 296.851 275.177 277.439 288.457 278.101 304.905 291.308 307.484 306.432 310.724 318.099 332.503 329.066 335.721 328.569 346.407 312.506 341.133 295.121 331.659 264.633 317.867 247.298 286.177 236.901 298.371 163.382 300.801 150.224 296.957 117.837 343.84 109.217 334.347 48.946 249.028 62.149 240.461 5.247 200.221 11.553 218.222 128.591 212.973 151.788 110.809 261.538 47.97 289.502 34.183 260.575 70.417 209.224 19.955 229.189 5.593 263.919 26.694 314.407 35.642 373.845 33.856 418.803 31.614 452.859 52.559 495.498 52.559 495.498" style="fill:url(#a)"/><path d="M344.8887,293.76l-9.73-31.3091-15.1826-19.083L290.72,233.769l11.5371-69.5542,2.5547-13.8413L301.3936,121.57l47.0468-8.65L337.541,43.7129,252.2529,56.9111,243.6836,0,194.3662,7.73,212.93,128.4282l-4.7832,21.1406L107.4639,257.7271l-57.9024,25.767-10.708-22.4682,43.5547-61.7276-66.5752,26.34L0,263.9282l21.6172,51.7237,8.7978,58.4462L28.6494,418.562,26.33,453.7812l21.9013,44.5855,16.2774,13.9565h45.31l-3.8829-15.0883,19.295-10.4-1.8633-17.399L108.8125,457.71,90.3516,439.147,140.16,366.8193l-2.8633-13.2558,39.084-10.82,52.5439-50.2041,6.5449,21.625,14.2022,21.9546,6.667,3.7685,8.4306.9248,24.72-6.8642,8.94-8.732-2.916-12.393-11.5948-8.1988-6.0741-9.0229.961-13.357,7.3125.3643L300.05,293.7949l2.2871,13.4082,3.8838,14.08,24.9053,12.54,6.6689-1.03,13.0039-19.5479ZM80.749,436.9155l-.83,4.7515,22.5665,22.6909,12.165,9.8359.8008,7.49-13.6826,7.375-15.877-19.5947-8.5654-6.9131L70.6075,450.4l1.1436-16.9267,20.6406-27.89,19.041-46.2661.8623-5.0381,15.877.4932,2.1836,10.1089Zm206.63-118.6084.9336,3.9658-3.5479,3.4649L264.0156,331.5l-4.8027-.5264-3.0625-1.7314L243.876,310.2676l-8.1809-27.0294-3.9148-60.27-9.1543.5947,3.81,58.665L171.71,334.517l-40.3652,11.1753L104.6,344.8608l-2.0381,11.9053-18.2207,44.273L62.7783,430.1738l-1.5068,22.3018,8.8945,16.0869,9.208,7.4316,17.0313,21.0176,1.5791,6.1367H67.9033l-12.2676-10.519L35.6465,451.937l2.1611-32.8325L39.6,374.0273l.0166-.435-9.0967-60.43L9.9355,263.91l12.89-31.17,34.3486-13.59L28.2617,260.1245,45.126,295.5107l67.7773-30.1626,102.8018-110.434.8437-.9058,5.7129-25.2539L204.8252,15.377l31.1611-4.8838,8.5655,56.8935,85.3505-13.208,8.085,51.335-46.7187,8.59,4.2695,35.9712-2.3174,12.5571-12.1472,73.2308-10.7986,37.09L268.4658,298.1l8.7832,13.0435Zm45.0938,5.9229-18.4981-9.315-2.6338-9.4848-2.832-16.6089L289.544,273.5928l-10.0107-.4983,9.0649-30.366,25.9087,8.5005,12.4014,15.5869,9.21,29.6367,4.6455,15.3146Z" style="fill:#6f6c75"/><rect x="244.9256" y="16.6755" width="25.3144" height="43.8041" transform="translate(-2.8708 39.6034) rotate(-8.7434)" style="fill:#6f6c75"/><polygon points="338.318 78.829 295.086 54.888 333.722 48.946 338.318 78.829" style="fill:#6f6c75"/><path d="M270.81,81.7776l-20.4629,3.1471-.2545-1.6552a10.3517,10.3517,0,0,1,20.4628-3.1471Z" style="fill:#6f6c75"/><rect x="248.5178" y="102.5742" width="18.3503" height="84.8468" transform="translate(92.1274 389.9834) rotate(-85.3139)" style="fill:#6f6c75"/><polygon points="194.725 238.844 151.92 260.111 124.602 252.647 174.968 195.02 196.414 173.385 194.725 238.844" style="fill:#6f6c75"/><polygon points="174.046 338.63 127.38 349.57 129.652 331.955 155.714 301.053 195.289 314.804 174.046 338.63" style="fill:#6f6c75"/><polygon points="28.892 322.072 52.835 333.286 48.649 361.255 39.121 383.725 37.719 373.356 28.892 322.072" style="fill:#6f6c75"/><path d="M171.7176,426.82a7.4319,7.4319,0,0,1,5.2975-2.1724l35.7379.1395a7.4756,7.4756,0,0,1,7.45,7.5011v.01l-.2571,65.8474a7.4862,7.4862,0,0,1-7.5081,7.4527L176.7,505.4589a7.4774,7.4774,0,0,1-7.4527-7.5022v-.0089L169.504,432.1A7.4307,7.4307,0,0,1,171.7176,426.82Z" style="isolation:isolate;opacity:0.3499999940395355;fill:url(#b)"/><path d="M207.7161,391.16l32.8317.1282a8.9281,8.9281,0,0,1,8.8987,8.9574v.011l-.377,96.5508a8.94,8.94,0,0,1-8.9685,8.8987l-10.46-.0408-2.0293-.0079.7049-1.9028a16.1945,16.1945,0,0,0,1.0283-5.5725l.2569-65.8474a16.8672,16.8672,0,0,0-16.79-16.944l-.0219,0-12.6836-.0494-1.4183-.0056.0056-1.4181.0541-13.8588A8.9437,8.9437,0,0,1,207.7161,391.16Z" style="isolation:isolate;opacity:0.3499999940395355;fill:url(#c)"/><path d="M232.3412,357.56a10.2286,10.2286,0,0,1,7.2889-2.9886l30.1094.1175a10.2873,10.2873,0,0,1,10.253,10.3214l0,.0119-.51,130.5449A10.3015,10.3015,0,0,1,269.15,505.82l-10.8443-.0423-2.1447-.0084.8475-1.97a17.6923,17.6923,0,0,0,1.4609-6.9545l.3769-96.5508A18.32,18.32,0,0,0,240.6111,381.89l-.0261,0-9.9391-.0388-1.4182-.0056.0056-1.4181.0609-15.6026A10.2217,10.2217,0,0,1,232.3412,357.56Z" style="isolation:isolate;opacity:0.3499999940395355;fill:url(#d)"/><path d="M165.1039,420.1545a16.7635,16.7635,0,0,0-4.9961,11.9092l-.2571,65.8474a16.8666,16.8666,0,0,0,16.7859,16.9471l.0263,0,92.45.3609a19.7149,19.7149,0,0,0,19.7694-19.6155l.51-130.545a19.6792,19.6792,0,0,0-19.5887-19.7693l-.027,0-30.1092-.1175a19.715,19.715,0,0,0-19.7693,19.6155l-.0609,15.6027-.0055,1.4182-1.4181-.0057-10.66-.0416a18.3524,18.3524,0,0,0-18.4014,18.2614l-.054,13.8588-.0055,1.4182-1.4181-.0056-10.8221-.0423A16.7647,16.7647,0,0,0,165.1039,420.1545ZM232.3412,357.56a10.2286,10.2286,0,0,1,7.2889-2.9886l30.1094.1175a10.2873,10.2873,0,0,1,10.253,10.3214l0,.0119-.51,130.5449A10.3015,10.3015,0,0,1,269.15,505.82l-10.8443-.0423-2.1447-.0084.8475-1.97a17.6923,17.6923,0,0,0,1.4609-6.9545l.3769-96.5508A18.32,18.32,0,0,0,240.6111,381.89l-.0261,0-9.9391-.0388-1.4182-.0056.0056-1.4181.0609-15.6026A10.2217,10.2217,0,0,1,232.3412,357.56Zm-24.6251,33.6,32.8317.1282a8.9281,8.9281,0,0,1,8.8987,8.9574v.011l-.377,96.5508a8.94,8.94,0,0,1-8.9685,8.8987l-10.46-.0408-2.0293-.0079.7049-1.9028a16.1945,16.1945,0,0,0,1.0283-5.5725l.2569-65.8474a16.8672,16.8672,0,0,0-16.79-16.944l-.0219,0-12.6836-.0494-1.4183-.0056.0056-1.4181.0541-13.8588A8.9437,8.9437,0,0,1,207.7161,391.16Zm-35.9985,35.66a7.4319,7.4319,0,0,1,5.2975-2.1724l35.7379.1395a7.4756,7.4756,0,0,1,7.45,7.5011v.01l-.2571,65.8474a7.4862,7.4862,0,0,1-7.5081,7.4527L176.7,505.4589a7.4774,7.4774,0,0,1-7.4527-7.5022v-.0089L169.504,432.1a7.4307,7.4307,0,0,1,2.2136-5.28Z" style="fill:#6f6c75"/></g></svg>