<svg xmlns="http://www.w3.org/2000/svg" width="106.1" height="32" viewBox="0 0 106.1 32"><path d="M63.1,10.2c0,3.5-1,6.3-2.9,8.2s-4.7,2.9-8.2,2.9H45.1V.1h7.3a11.39,11.39,0,0,1,7.9,2.6C62.2,4.4,63.1,7,63.1,10.2Zm-5.9.2A6.49,6.49,0,0,0,56,6.1a4.37,4.37,0,0,0-3.5-1.4H50.8V16.6h1.3a4.62,4.62,0,0,0,3.8-1.5C56.8,14.1,57.2,12.5,57.2,10.4Z" style="fill:#fff"/><path d="M78.4,21.3l-1-4H70.5l-1.1,4H63.1L70.1,0h7.6l7,21.3Zm-2.2-8.7-.9-3.5c-.2-.8-.5-1.8-.8-3S74,4,73.9,3.5c-.1.5-.3,1.3-.5,2.4s-.8,3.4-1.7,6.7Z" style="fill:#fff"/><path d="M104.6,21.3H98l-4.1-6.6-4.1,6.6H83.3l7-10.8L83.7.1H90l3.8,6.6L97.5.1H104L97.3,10.9Z" style="fill:#fff"/><rect x="11.6" y="12.2" width="16.5" height="7.2" style="fill:#e14e37"/><rect x="30.1" y="12.2" width="4.9" height="7.2" style="fill:#e14e37"/><rect y="2.1" width="19.8" height="7.2" style="fill:#e14e37"/><rect x="22.1" y="2.1" width="8.1" height="7.2" style="fill:#e14e37"/><rect x="6.2" y="22.2" width="10.5" height="7.2" style="fill:#e14e37"/><path d="M49.1,25.3v1.3H46V28h2.9v1.3H46v2.6H44.5V25.2h4.6Z" style="fill:#fff"/><path d="M56.2,31a3.5,3.5,0,0,1-6-2.5,3.5,3.5,0,1,1,7,0A3.55,3.55,0,0,1,56.2,31Zm-.5-2.4a2,2,0,0,0-.6-1.5,1.93,1.93,0,0,0-2.8,0,2.17,2.17,0,0,0,0,3,1.93,1.93,0,0,0,2.8,0A2,2,0,0,0,55.7,28.6Z" style="fill:#fff"/><path d="M64,27.5a1.93,1.93,0,0,1-1.3,2.1L64.4,32H62.6l-1.5-2.1h-1V32H58.6V25.3h2.5a4,4,0,0,1,2.2.5A1.83,1.83,0,0,1,64,27.5Zm-1.8.8a1,1,0,0,0,.3-.8c0-.4-.1-.6-.3-.7a2.15,2.15,0,0,0-1-.2H60.1v2h1.1A3,3,0,0,0,62.2,28.3Z" style="fill:#fff"/><path d="M71.7,27.7l-1.8,3.6H69l-1.8-3.6v4.2H65.7V25.2h2l1.7,3.7,1.7-3.7h2v6.7H71.6V27.7Z" style="fill:#fff"/><path d="M79.8,31.9l-.6-1.4H76.4l-.6,1.4H74.2l2.9-6.7h1.4l2.9,6.7Zm-2-4.7L77,29.1h1.7Z" style="fill:#fff"/><path d="M84.7,26.6V32H83.2V26.6H81.3V25.3h5.3v1.3Z" style="fill:#fff"/><path d="M90.7,26.6V32H89.2V26.6H87.3V25.3h5.3v1.3Z" style="fill:#fff"/><path d="M98.6,25.3v1.3H95.3V28h3v1.3h-3v1.4h3.4V32H93.8V25.3Z" style="fill:#fff"/><path d="M105.7,27.5a1.93,1.93,0,0,1-1.3,2.1l1.7,2.4h-1.8l-1.5-2.1h-1V32h-1.5V25.3h2.5a4,4,0,0,1,2.2.5A1.83,1.83,0,0,1,105.7,27.5Zm-1.8.8a1,1,0,0,0,.3-.8c0-.4-.1-.6-.3-.7a2.15,2.15,0,0,0-1-.2h-1.1v2h1.1A4.05,4.05,0,0,0,103.9,28.3Z" style="fill:#fff"/></svg>