<?xml version="1.0" encoding="utf-8"?>
<!-- Generator: Adobe Illustrator 21.0.2, SVG Export Plug-In . SVG Version: 6.00 Build 0)  -->
<svg version="1.1" id="Layer_1" xmlns="http://www.w3.org/2000/svg" xmlns:xlink="http://www.w3.org/1999/xlink" x="0px" y="0px"
	 width="106.1px" height="32px" viewBox="0 0 106.1 32" style="enable-background:new 0 0 106.1 32;" xml:space="preserve">
<style type="text/css">
	.st0{fill:#333333;}
	.st1{fill:#E14E37;}
</style>
<g>
	<g>
		<path class="st0" d="M63.1,10.2c0,3.5-1,6.3-2.9,8.2c-1.9,1.9-4.7,2.9-8.2,2.9h-6.9V0.1h7.3c3.4,0,6,0.9,7.9,2.6
			C62.2,4.4,63.1,7,63.1,10.2z M57.2,10.4c0-1.9-0.4-3.4-1.2-4.3c-0.8-0.9-1.9-1.4-3.5-1.4h-1.7v11.9h1.3c1.7,0,3-0.5,3.8-1.5
			C56.8,14.1,57.2,12.5,57.2,10.4z"/>
		<path class="st0" d="M78.4,21.3l-1-4h-6.9l-1.1,4h-6.3L70.1,0h7.6l7,21.3H78.4z M76.2,12.6l-0.9-3.5c-0.2-0.8-0.5-1.8-0.8-3
			C74.2,4.9,74,4,73.9,3.5c-0.1,0.5-0.3,1.3-0.5,2.4c-0.3,1.1-0.8,3.4-1.7,6.7H76.2z"/>
		<path class="st0" d="M104.6,21.3H98l-4.1-6.6l-4.1,6.6h-6.5l7-10.8L83.7,0.1H90l3.8,6.6l3.7-6.6h6.5l-6.7,10.8L104.6,21.3z"/>
	</g>
	<g>
		<rect x="11.6" y="12.2" class="st1" width="16.5" height="7.2"/>
		<rect x="30.1" y="12.2" class="st1" width="4.9" height="7.2"/>
	</g>
	<g>
		<rect y="2.1" class="st1" width="19.8" height="7.2"/>
		<rect x="22.1" y="2.1" class="st1" width="8.1" height="7.2"/>
	</g>
	<g>
		<rect x="6.2" y="22.2" class="st1" width="10.5" height="7.2"/>
	</g>
	<g>
		<path class="st0" d="M49.1,25.3v1.3H46V28h2.9v1.3H46v2.6h-1.5v-6.7H49.1z"/>
		<path class="st0" d="M56.2,31c-0.7,0.7-1.5,1-2.5,1s-1.8-0.3-2.5-1c-0.7-0.7-1-1.5-1-2.5c0-1,0.3-1.8,1-2.5c0.7-0.7,1.5-1,2.5-1
			s1.8,0.3,2.5,1s1,1.5,1,2.5C57.2,29.5,56.8,30.4,56.2,31z M55.7,28.6c0-0.6-0.2-1.1-0.6-1.5c-0.4-0.4-0.8-0.6-1.4-0.6
			s-1,0.2-1.4,0.6c-0.4,0.4-0.6,0.9-0.6,1.5c0,0.6,0.2,1.1,0.6,1.5c0.4,0.4,0.9,0.6,1.4,0.6s1-0.2,1.4-0.6
			C55.5,29.7,55.7,29.2,55.7,28.6z"/>
		<path class="st0" d="M64,27.5c0,1.1-0.4,1.8-1.3,2.1l1.7,2.4h-1.8l-1.5-2.1h-1v2.1h-1.5v-6.7h2.5c1,0,1.8,0.2,2.2,0.5
			C63.8,26.1,64,26.7,64,27.5z M62.2,28.3c0.2-0.2,0.3-0.4,0.3-0.8c0-0.4-0.1-0.6-0.3-0.7c-0.2-0.1-0.5-0.2-1-0.2h-1.1v2h1.1
			C61.7,28.5,62.1,28.4,62.2,28.3z"/>
		<path class="st0" d="M71.7,27.7l-1.8,3.6H69l-1.8-3.6v4.2h-1.5v-6.7h2l1.7,3.7l1.7-3.7h2v6.7h-1.5V27.7z"/>
		<path class="st0" d="M79.8,31.9l-0.6-1.4h-2.8l-0.6,1.4h-1.6l2.9-6.7h1.4l2.9,6.7H79.8z M77.8,27.2l-0.8,1.9h1.7L77.8,27.2z"/>
		<path class="st0" d="M84.7,26.6v5.4h-1.5v-5.4h-1.9v-1.3h5.3v1.3H84.7z"/>
		<path class="st0" d="M90.7,26.6v5.4h-1.5v-5.4h-1.9v-1.3h5.3v1.3H90.7z"/>
		<path class="st0" d="M98.6,25.3v1.3h-3.3V28h3v1.3h-3v1.4h3.4v1.3h-4.9v-6.7H98.6z"/>
		<path class="st0" d="M105.7,27.5c0,1.1-0.4,1.8-1.3,2.1l1.7,2.4h-1.8l-1.5-2.1h-1v2.1h-1.5v-6.7h2.5c1,0,1.8,0.2,2.2,0.5
			C105.5,26.1,105.7,26.7,105.7,27.5z M103.9,28.3c0.2-0.2,0.3-0.4,0.3-0.8c0-0.4-0.1-0.6-0.3-0.7c-0.2-0.1-0.5-0.2-1-0.2h-1.1v2
			h1.1C103.4,28.5,103.7,28.4,103.9,28.3z"/>
	</g>
</g>
</svg>
