<svg xmlns="http://www.w3.org/2000/svg" width="100" height="112" viewBox="0 0 100 112"><rect x="33.54" y="39.22" width="32" height="32" style="fill:none"/><path d="M32.27,93.44H6.93a7.41,7.41,0,0,1-2.37-.57,5.9,5.9,0,0,1-2.29-1.52A6.79,6.79,0,0,1,.76,89,7.25,7.25,0,0,1,0,86.13V84.77A7.18,7.18,0,0,1,.4,83.4L7,67.5V41.65a2.49,2.49,0,0,1,0-.77v-.8a39.62,39.62,0,0,1,6.65-20.52,40.51,40.51,0,0,1,6.84-8,41.51,41.51,0,0,1,8.67-6.14A46,46,0,0,1,39.28,1.53a42.4,42.4,0,0,1,21.6-.26,44,44,0,0,1,9.58,3.8,43.17,43.17,0,0,1,8.63,6A41.52,41.52,0,0,1,90.73,28.34a33.56,33.56,0,0,1,2.13,10.14v29l6.58,15.91a7.45,7.45,0,0,1,.56,2.84,7.18,7.18,0,0,1-.56,2.74,8.86,8.86,0,0,1-1.57,2.27,8.48,8.48,0,0,1-2.32,1.57,7.12,7.12,0,0,1-2.69.56H67.51a19.82,19.82,0,0,1-1.5,7A18.55,18.55,0,0,1,62.26,106a17.66,17.66,0,0,1-5.63,3.8,18.09,18.09,0,0,1-14,0A16.79,16.79,0,0,1,37,106a18,18,0,0,1-3.75-5.67A19.2,19.2,0,0,1,32.27,93.44Zm60.79-7.15-.86-2c-.45-1-.91-2.07-1.47-3.35L89.11,77c-.62-1.36-1.13-2.69-1.58-3.86s-.85-2.23-1.16-3.14a5.48,5.48,0,0,1-.51-1.67V41.85A33.22,33.22,0,0,0,80.8,24.27a32.13,32.13,0,0,0-5.34-7,35.32,35.32,0,0,0-7.55-5.45,37.26,37.26,0,0,0-34.53-.36,35.56,35.56,0,0,0-7.28,5.07,35,35,0,0,0-5.87,6.58,36.94,36.94,0,0,0-4.11,7.27,29.69,29.69,0,0,0-1.81,8.33V68.33A6.16,6.16,0,0,1,13.8,70c-.31.92-.71,1.92-1.17,3.14a34.3,34.3,0,0,1-1.45,3.76L9.67,81.06c-.56,1.25-1,2.38-1.47,3.34L7.13,86.11ZM50.19,104.13a10.55,10.55,0,0,0,4.22-.82,10.25,10.25,0,0,0,3.34-2.25A11.24,11.24,0,0,0,60,97.71a12.77,12.77,0,0,0,.89-4.27H39.41a11.68,11.68,0,0,0,.91,4.2,10.87,10.87,0,0,0,2.27,3.42,9.33,9.33,0,0,0,3.4,2.32A10.06,10.06,0,0,0,50.19,104.13Z" style="fill:#e6e6e6"/></svg>