<svg xmlns="http://www.w3.org/2000/svg" width="217.36" height="131.99" viewBox="0 0 217.36 131.99"><path d="M0,81.51a8.9,8.9,0,0,1,.32-2.33A97.1,97.1,0,0,1,9.39,56.62a104.34,104.34,0,0,1,13.9-19.37A110.29,110.29,0,0,1,41,21.55,116.8,116.8,0,0,1,132.61,2.49a118.71,118.71,0,0,1,22.82,7.27,116.39,116.39,0,0,1,20.8,11.73A111,111,0,0,1,194.06,37.2,103.13,103.13,0,0,1,208,56.46,96.73,96.73,0,0,1,217,79a9,9,0,0,1,.32,2.45,8.88,8.88,0,0,1-9,9,8.54,8.54,0,0,1-5.47-1.81,10.31,10.31,0,0,1-3.34-4.77q-.94-3-1.86-5.52c-.59-1.7-1.22-3.38-1.85-5s-1.35-3.31-2.12-4.94S192,65,190.83,63.15A86.9,86.9,0,0,0,175.7,44.31,93.8,93.8,0,0,0,156.23,30.2a100.43,100.43,0,0,0-22.45-8.92,93,93,0,0,0-23.93-3.13h-2.34a93.09,93.09,0,0,0-23.93,3.13,99,99,0,0,0-22.45,9A97,97,0,0,0,41.6,44.42,83,83,0,0,0,26.53,63.26a51.75,51.75,0,0,0-2.86,5.25c-.79,1.66-1.49,3.31-2.12,4.93s-1.26,3.3-1.87,5S18.47,82,17.83,84a10.92,10.92,0,0,1-3.29,4.83A8.34,8.34,0,0,1,9,90.64a8.36,8.36,0,0,1-3.45-.74,9.83,9.83,0,0,1-2.87-2,9.57,9.57,0,0,1-2-2.86A8.51,8.51,0,0,1,0,81.51Zm67.33,9.13v-.81A37.86,37.86,0,0,1,70.68,74a41.66,41.66,0,0,1,9-12.88,43.23,43.23,0,0,1,13.16-8.68,39.72,39.72,0,0,1,15.79-3.19,40.59,40.59,0,0,1,16.11,3.23,41.17,41.17,0,0,1,22,22,41.79,41.79,0,0,1,0,32.22,41.26,41.26,0,0,1-22,22,41.79,41.79,0,0,1-32.22,0,41.17,41.17,0,0,1-22-22A40.59,40.59,0,0,1,67.33,90.64Zm68.89,0v-.57A25.3,25.3,0,0,0,134,79.57a27.74,27.74,0,0,0-6-8.6,28.63,28.63,0,0,0-8.8-5.81,27.19,27.19,0,0,0-21.24,0,27.42,27.42,0,0,0-8.72,5.94,28.34,28.34,0,0,0-5.9,8.8,27.45,27.45,0,0,0,0,21.44A27.79,27.79,0,0,0,97.94,116a27.45,27.45,0,0,0,21.44,0A27.69,27.69,0,0,0,134,101.38,26.68,26.68,0,0,0,136.22,90.64Z" style="fill:#f3f3f3"/></svg>