<svg id="Layer_1" data-name="Layer 1" xmlns="http://www.w3.org/2000/svg" viewBox="0 0 1500 500"><defs><style>.cls-1{fill:#eb5e5e;}.cls-2{fill:#d35455;}.cls-3{fill:#4b4a4b;}</style></defs><title>sqlbi</title><g id="SQLBI"><path class="cls-1" d="M349.1,111.4c0-18.8-77.3-33.1-173.3-33.1S2.4,92.7,2.4,110.3v265c0,18.8,79.5,33.1,175.5,33.1s173.3-15.5,173.3-33.1V109.2ZM107.3,356.5c-23.2-2.2-46.4-4.4-69.6-7.7V310.2c23.2,2.2,46.4,4.4,69.6,5.5Zm103.8,2.3q-34.8,1.65-69.6,0V204.2h69.6Zm102.6-10c-23.2,3.3-46.4,6.6-69.6,7.7V243.9c23.2,0,46.4-1.1,69.6-2.2Z"/><path class="cls-2" d="M177.9,78.3c96.1,0,173.3,14.4,173.3,30.9s-77.3,30.9-173.3,30.9S2.4,125.8,2.4,109.2,81.9,78.3,177.9,78.3Z"/><path class="cls-3" d="M481.6,293.6a197.51,197.51,0,0,0,88.3,21c25.4,0,54.1-4.4,54.1-21,0-17.7-26.5-26.5-55.2-30.9-42-6.6-100.5-18.8-100.5-80.6,0-62.9,56.3-79.5,110.4-79.5,49.7,0,82.8,14.4,101.6,25.4l-18.8,51.9c-15.5-9.9-46.4-21-82.8-21-25.4,0-48.6,5.5-48.6,21,0,19.9,32,21,49.7,23.2,74,12.1,106,43.1,106,91.6,0,62.9-66.2,75.1-115.9,75.1-45.3,0-81.7-11-107.1-25.4C462.8,345.5,481.6,293.6,481.6,293.6ZM939.7,493.4H877.9v-127c-12.1,5.5-27.6,6.6-43.1,6.6-72.9,0-128.1-40.9-128.1-131.4V234c0-87.2,51.9-131.4,128.1-131.4,21,0,70.7,3.3,104.9,23.2V493.4Zm-170-251.7c0,61.8,28.7,75.1,69.6,75.1,18.8,0,32-3.3,38.6-7.7V166.6c-9.9-4.4-22.1-7.7-40.9-7.7-42,0-67.3,14.4-67.3,75.1v7.7ZM977.3,6.6h64V374.3h-64V6.6Z"/><path class="cls-1" d="M1077.8,6.6h61.8V109.3c12.1-5.5,27.6-6.6,43.1-6.6,72.9,0,128.1,40.9,128.1,131.4v7.7c0,88.3-51.9,131.4-128.1,131.4-21,0-70.7-3.3-104.9-23.2Zm171,227.3c0-61.8-29.7-76.1-70.6-76.1-17.7,0-32,4.4-37.5,7.7V308c8.8,4.4,22.1,7.7,40.9,7.7,42,0,67.3-14.4,67.3-75.1ZM1377,6.6c21,0,37.5,15.5,37.5,35.3s-16.6,36.4-37.5,36.4c-19.9,0-37.5-16.6-37.5-36.4S1356,6.6,1377,6.6Zm-31,109.3h61.8V373.1H1346V115.9Z"/><path class="cls-1" d="M1440.9,344.5a28.14,28.14,0,0,1,3.8-14.1,27.34,27.34,0,0,1,10.4-10.4,28.51,28.51,0,0,1,14.2-3.8,28.14,28.14,0,0,1,14.1,3.8,27.34,27.34,0,0,1,10.4,10.4,28.23,28.23,0,0,1,3.8,14.2,27.68,27.68,0,0,1-3.7,14,28.43,28.43,0,0,1-39.1,10.5,28.52,28.52,0,0,1-10.3-10.4A30,30,0,0,1,1440.9,344.5Zm5.3,0a22.86,22.86,0,0,0,11.6,19.9,23.33,23.33,0,0,0,11.5,3.1,22.86,22.86,0,0,0,19.9-11.6,23.33,23.33,0,0,0,3.1-11.5,22.86,22.86,0,0,0-11.6-19.9,22.32,22.32,0,0,0-11.5-3.1,22.86,22.86,0,0,0-19.9,11.6A22.32,22.32,0,0,0,1446.2,344.5Zm34.5-6.6c0,4.3-1.8,7.2-5.4,8.8l8.9,15.1h-9.6L1468,349h-1.8v12.8h-8.6V327.2h10c4.6,0,7.9.9,10,2.6S1480.7,334.3,1480.7,337.9Zm-14.5,4.8h1.2a4,4,0,0,0,4.7-4.7,4.88,4.88,0,0,0-1.1-3.5c-.7-.7-1.9-1-3.7-1h-1.1Z"/></g></svg>