<svg xmlns="http://www.w3.org/2000/svg" width="1500" height="500" viewBox="0 0 1500 500"><path d="M342.26,132.05c-9.54,4-22.86,7.57-39.58,10.6-33.72,6.09-78,9.45-124.78,9.45s-91.61-3.34-125.84-9.41c-17-3-30.57-6.57-40.29-10.56a59.6362,59.6362,0,0,1-9.37-4.65V375.3c0,18.8,79.5,33.1,175.5,33.1s173.3-15.5,173.3-33.1V127.55A58.4391,58.4391,0,0,1,342.26,132.05ZM107.3,356.5c-23.2-2.2-46.4-4.4-69.6-7.7V310.2c23.2,2.2,46.4,4.4,69.6,5.5Zm103.8,2.3q-34.8,1.65-69.6,0V204.2h69.6Zm102.6-10c-23.2,3.3-46.4,6.6-69.6,7.7V243.9c23.2,0,46.4-1.1,69.6-2.2Z" style="fill:#fff"/><path d="M177.9,78.3c-96,0-175.5,14.3-175.5,30.9s79.5,30.9,175.5,30.9,173.3-14.4,173.3-30.9S274,78.3,177.9,78.3Z" style="fill:#fff"/><path d="M481.6,293.6a197.5,197.5,0,0,0,88.3,21c25.4,0,54.1-4.4,54.1-21,0-17.7-26.5-26.5-55.2-30.9-42-6.6-100.5-18.8-100.5-80.6,0-62.9,56.3-79.5,110.4-79.5,49.7,0,82.8,14.4,101.6,25.4l-18.8,51.9c-15.5-9.9-46.4-21-82.8-21-25.4,0-48.6,5.5-48.6,21,0,19.9,32,21,49.7,23.2,74,12.1,106,43.1,106,91.6,0,62.9-66.2,75.1-115.9,75.1-45.3,0-81.7-11-107.1-25.4C462.8,345.5,481.6,293.6,481.6,293.6ZM939.7,493.4H877.9v-127c-12.1,5.5-27.6,6.6-43.1,6.6-72.9,0-128.1-40.9-128.1-131.4V234c0-87.2,51.9-131.4,128.1-131.4,21,0,70.7,3.3,104.9,23.2V493.4Zm-170-251.7c0,61.8,28.7,75.1,69.6,75.1,18.8,0,32-3.3,38.6-7.7V166.6c-9.9-4.4-22.1-7.7-40.9-7.7-42,0-67.3,14.4-67.3,75.1v7.7ZM977.3,6.6h64V374.3h-64V6.6Z" style="fill:#fff"/><path d="M1077.8,6.6h61.8V109.3c12.1-5.5,27.6-6.6,43.1-6.6,72.9,0,128.1,40.9,128.1,131.4v7.7c0,88.3-51.9,131.4-128.1,131.4-21,0-70.7-3.3-104.9-23.2Zm171,227.3c0-61.8-29.7-76.1-70.6-76.1-17.7,0-32,4.4-37.5,7.7V308c8.8,4.4,22.1,7.7,40.9,7.7,42,0,67.3-14.4,67.3-75.1ZM1377,6.6c21,0,37.5,15.5,37.5,35.3s-16.6,36.4-37.5,36.4c-19.9,0-37.5-16.6-37.5-36.4S1356,6.6,1377,6.6Zm-31,109.3h61.8V373.1H1346Z" style="fill:#fff"/><path d="M1440.9,344.5a28.0509,28.0509,0,0,1,3.8-14.1,27.3391,27.3391,0,0,1,10.4-10.4,28.44,28.44,0,0,1,14.2-3.8,28.0508,28.0508,0,0,1,14.1,3.8,27.3391,27.3391,0,0,1,10.4,10.4,28.1884,28.1884,0,0,1,3.8,14.2,27.7392,27.7392,0,0,1-3.7,14,28.43,28.43,0,0,1-38.7554,10.7026l-.0046-.0026-.34-.2a28.5308,28.5308,0,0,1-10.3-10.4A30.06,30.06,0,0,1,1440.9,344.5Zm5.3,0a22.87,22.87,0,0,0,11.6,19.9,23.321,23.321,0,0,0,11.5,3.1,22.87,22.87,0,0,0,19.9-11.6,23.3206,23.3206,0,0,0,3.1-11.5,22.87,22.87,0,0,0-11.6-19.9,22.2606,22.2606,0,0,0-11.5-3.1,22.87,22.87,0,0,0-19.9,11.6A22.26,22.26,0,0,0,1446.2,344.5Zm34.5-6.6c0,4.3-1.8,7.2-5.4,8.8l8.9,15.1h-9.6L1468,349h-1.8v12.8h-8.6V327.2h10c4.6,0,7.9.9,10,2.6s3.1,4.5,3.1,8.1Zm-14.5,4.8h1.2a4,4,0,0,0,4.7-3.1485l0-.0015a4.0024,4.0024,0,0,0,0-1.55,4.88,4.88,0,0,0-1.1-3.5c-.7-.7-1.9-1-3.7-1h-1.1Z" style="fill:#fff"/></svg>