<svg xmlns="http://www.w3.org/2000/svg" width="32" height="32" viewBox="0 0 32 32"><path d="M4.62,20.88a3.06,3.06,0,0,1,.26-1.24,3.53,3.53,0,0,1,.68-1,3.61,3.61,0,0,1,1-.71,2.91,2.91,0,0,1,1.24-.27H24.12a3.06,3.06,0,0,1,1.24.26,3.53,3.53,0,0,1,1,.68,3.61,3.61,0,0,1,.71,1,2.91,2.91,0,0,1,.27,1.24,7.53,7.53,0,0,1-.49,2.78,7,7,0,0,1-1.31,2.13,7.45,7.45,0,0,1-1.93,1.53,11.93,11.93,0,0,1-2.37,1,16.26,16.26,0,0,1-2.62.56A22,22,0,0,1,16,29a23.13,23.13,0,0,1-2.5-.13,14.54,14.54,0,0,1-2.45-.48A11.78,11.78,0,0,1,8.5,27.34a8,8,0,0,1-2-1.6A6.91,6.91,0,0,1,5.11,23.6,7.36,7.36,0,0,1,4.62,20.88Zm21.13,0a1.48,1.48,0,0,0-.13-.63,1.63,1.63,0,0,0-.87-.87,1.51,1.51,0,0,0-.63-.13H7.88a1.6,1.6,0,0,0-1.15.48,1.5,1.5,0,0,0-.35.51,1.53,1.53,0,0,0-.13.64,5.64,5.64,0,0,0,.43,2.29,5.48,5.48,0,0,0,1.17,1.7,6.37,6.37,0,0,0,1.71,1.21,11,11,0,0,0,2,.77,15.19,15.19,0,0,0,2.22.4,20.66,20.66,0,0,0,2.17.13,20.66,20.66,0,0,0,2.17-.13,15.19,15.19,0,0,0,2.22-.4,11,11,0,0,0,2.05-.77,6.37,6.37,0,0,0,1.71-1.21,5.41,5.41,0,0,0,1.17-1.71A5.62,5.62,0,0,0,25.75,20.88ZM9.5,9.37A6,6,0,0,1,10,6.89a6.42,6.42,0,0,1,1.42-2A6.79,6.79,0,0,1,13.52,3.5a6.47,6.47,0,0,1,5,0A6.46,6.46,0,0,1,22,7,6.53,6.53,0,0,1,22,12a6.46,6.46,0,0,1-3.46,3.46,6.57,6.57,0,0,1-5.1,0A6.45,6.45,0,0,1,10,12,6.7,6.7,0,0,1,9.5,9.37Zm11.38,0a4.5,4.5,0,0,0-.4-1.86A4.78,4.78,0,0,0,19.42,6a5,5,0,0,0-1.55-1A4.81,4.81,0,0,0,16,4.62,4.65,4.65,0,0,0,14.1,5,4.83,4.83,0,0,0,11.51,7.6a4.82,4.82,0,0,0,0,3.8A4.83,4.83,0,0,0,14.1,14a4.65,4.65,0,0,0,1.9.39A4.84,4.84,0,0,0,17.94,14a4.79,4.79,0,0,0,1.54-1.07,4.9,4.9,0,0,0,1-1.59A5.18,5.18,0,0,0,20.88,9.4Z"/><rect width="32" height="32" style="fill:none"/></svg>