<?xml version="1.0" encoding="utf-8"?>
<!-- Generator: Adobe Illustrator 26.0.0, SVG Export Plug-In . SVG Version: 6.00 Build 0)  -->
<svg version="1.1" id="Layer_1" xmlns="http://www.w3.org/2000/svg" xmlns:xlink="http://www.w3.org/1999/xlink" x="0px" y="0px"
	 viewBox="0 0 100 100" style="enable-background:new 0 0 100 100;" xml:space="preserve">
<style type="text/css">
	.st0{fill:#468F5A;}
</style>
<g>
	<path class="st0" d="M72.9,83L62.1,73c-10.7,5.2-23.6,0.7-28.8-10c-1.3-2.7-2-5.7-2.1-8.7C31,46.4,35.1,39.1,41.8,35
		c-12.4-1.1-21.5-4.5-22.4-8.5V78c0,5.2,13.7,9.5,30.6,9.5c9.8,0,18.5-1.4,24.1-3.6C73.6,83.6,73.2,83.3,72.9,83z"/>
	<ellipse class="st0" cx="50" cy="21.5" rx="29.1" ry="9"/>
	<path class="st0" d="M46.3,56.3c-0.2-5.4,3.5-10.2,8.7-11.4c-0.7-0.2-1.5-0.3-2.3-0.3h-0.3c-5,0.2-8.9,4.3-8.7,9.3
		c0.1,2.8,1.5,5.4,3.7,7C46.8,59.4,46.4,57.8,46.3,56.3z"/>
	<path class="st0" d="M79.6,75.8L67.9,64.9c-0.2-0.2-0.5-0.3-0.7-0.5c6.1-8,4.6-19.4-3.3-25.6s-19.4-4.6-25.6,3.3
		s-4.6,19.4,3.3,25.6c6.2,4.8,14.7,5.1,21.2,0.7c0.2,0.4,0.4,0.7,0.7,1l11.6,10.9c1.3,1.2,3.3,1.1,4.5-0.2
		C80.9,79,80.8,77,79.6,75.8z M62.8,61.1l-1.2,1.6l-1.8,1.2c-5.7,3.8-13.5,2.3-17.3-3.4s-2.3-13.5,3.4-17.3s13.5-2.3,17.3,3.4
		C66.1,51.1,66,56.9,62.8,61.1z"/>
</g>
</svg>
